<svg width="72" height="28" viewBox="0 0 72 28" fill="none" xmlns="http://www.w3.org/2000/svg">
<path d="M4.56946 19.0152C4.91611 19.0152 5.2281 19.0404 5.50542 19.0908C5.78904 19.1412 6.05061 19.2295 6.29011 19.3555L6.08212 20.0362C5.84892 19.9291 5.61887 19.8503 5.39197 19.7999C5.17137 19.7495 4.93187 19.7242 4.67345 19.7242C4.39613 19.7242 4.13141 19.7652 3.8793 19.8471C3.62719 19.9291 3.40345 20.0646 3.20806 20.2537C3.01898 20.4365 2.86771 20.6791 2.75426 20.9816C2.64081 21.2779 2.58409 21.6466 2.58409 22.0878C2.58409 22.8504 2.75741 23.4303 3.10406 23.8273C3.45072 24.2244 3.93918 24.4229 4.56946 24.4229C4.80896 24.4229 5.0138 24.4103 5.18398 24.3851C5.36045 24.3599 5.53063 24.3158 5.6945 24.2528V22.5983H4.56946V21.9176H6.50756V24.7917C6.25545 24.8925 5.97497 24.9776 5.66614 25.0469C5.3573 25.11 4.99174 25.1415 4.56946 25.1415C4.15978 25.1415 3.77531 25.0753 3.41605 24.9429C3.0631 24.8106 2.75426 24.6152 2.48954 24.3568C2.22483 24.0984 2.01684 23.7801 1.86557 23.4019C1.71431 23.0237 1.63867 22.5857 1.63867 22.0878C1.63867 21.5899 1.71115 21.1487 1.85612 20.7642C2.00738 20.3797 2.21222 20.0583 2.47064 19.7999C2.72905 19.5415 3.03789 19.3461 3.39714 19.2137C3.7564 19.0814 4.14717 19.0152 4.56946 19.0152Z" fill="#07BAB7"/>
<path d="M7.68142 25.0564V20.6129H8.30539L8.44721 21.5016C8.55435 21.218 8.73083 20.9879 8.97664 20.8115C9.22245 20.635 9.50607 20.5468 9.82751 20.5468C9.99138 20.5468 10.1269 20.5594 10.234 20.5846C10.3412 20.6098 10.4389 20.6413 10.5271 20.6791L10.3664 21.4071C10.2908 21.3693 10.2057 21.3377 10.1111 21.3125C10.0229 21.2873 9.91575 21.2747 9.78969 21.2747C9.60691 21.2747 9.43674 21.3062 9.27917 21.3693C9.1279 21.4323 8.9924 21.5268 8.87264 21.6529C8.75919 21.7789 8.6678 21.9365 8.59847 22.1256C8.53544 22.3084 8.50393 22.5195 8.50393 22.759V25.0564H7.68142Z" fill="#07BAB7"/>
<path d="M11.3041 25.0564V20.6129H12.1361V25.0564H11.3041ZM11.7201 19.469C11.5751 19.469 11.4491 19.4217 11.3419 19.3272C11.2411 19.2263 11.1907 19.1034 11.1907 18.9585C11.1907 18.8135 11.2411 18.6906 11.3419 18.5897C11.4491 18.4889 11.5751 18.4385 11.7201 18.4385C11.8588 18.4385 11.9817 18.4889 12.0888 18.5897C12.196 18.6906 12.2495 18.8135 12.2495 18.9585C12.2495 19.1034 12.196 19.2263 12.0888 19.3272C11.9817 19.4217 11.8588 19.469 11.7201 19.469Z" fill="#07BAB7"/>
<path d="M17.28 22.9292H14.094V22.967C14.094 23.4586 14.2263 23.8368 14.4911 24.1015C14.7621 24.3662 15.1276 24.4986 15.5877 24.4986C15.8272 24.4986 16.0384 24.4797 16.2212 24.4419C16.4103 24.404 16.6151 24.341 16.8357 24.2528L17.0059 24.8673C16.8231 24.9492 16.6056 25.0154 16.3535 25.0658C16.1077 25.1163 15.843 25.1415 15.5594 25.1415C15.2379 25.1415 14.9354 25.0973 14.6518 25.0091C14.3745 24.9209 14.1287 24.7854 13.9144 24.6026C13.7001 24.4135 13.5299 24.174 13.4038 23.8841C13.2841 23.5941 13.2242 23.2475 13.2242 22.8441C13.2242 22.4975 13.2746 22.1823 13.3755 21.8987C13.4826 21.6151 13.6307 21.3756 13.8198 21.1802C14.0089 20.9785 14.2358 20.8241 14.5005 20.7169C14.7715 20.6035 15.0741 20.5468 15.4081 20.5468C15.6917 20.5468 15.947 20.594 16.1739 20.6886C16.4071 20.7831 16.6056 20.9155 16.7695 21.0856C16.9334 21.2558 17.0594 21.4607 17.1477 21.7002C17.2359 21.9397 17.28 22.2044 17.28 22.4943V22.9292ZM16.4197 22.3336C16.4197 22.1697 16.3976 22.0184 16.3535 21.8798C16.3157 21.7348 16.2527 21.6088 16.1644 21.5016C16.0825 21.3945 15.9754 21.3094 15.843 21.2464C15.7106 21.1833 15.5499 21.1518 15.3608 21.1518C15.0142 21.1518 14.7306 21.2621 14.51 21.4827C14.2957 21.7033 14.1633 21.9932 14.1129 22.3525L16.4197 22.3336Z" fill="#07BAB7"/>
<path d="M20.9023 20.6129H21.791L20.1365 25.0564H19.3235L17.6501 20.6129H18.5482L19.5504 23.6666L19.7205 24.3662H19.7584L19.9191 23.6761L20.9023 20.6129Z" fill="#07BAB7"/>
<path d="M22.5012 21.01C22.6525 20.9344 22.7943 20.8682 22.9267 20.8115C23.059 20.7484 23.1914 20.698 23.3237 20.6602C23.4561 20.6224 23.5916 20.594 23.7303 20.5751C23.8689 20.5562 24.0202 20.5468 24.1841 20.5468C24.4299 20.5468 24.6536 20.5751 24.8553 20.6318C25.0633 20.6823 25.2398 20.7705 25.3847 20.8966C25.536 21.0226 25.6526 21.1896 25.7346 21.3976C25.8165 21.5993 25.8575 21.8546 25.8575 22.1634V25.0564H25.1673L25.0633 24.5648H25.0444C24.849 24.7728 24.6347 24.9209 24.4015 25.0091C24.1683 25.0973 23.9099 25.1415 23.6263 25.1415C23.412 25.1415 23.2134 25.1131 23.0307 25.0564C22.8542 24.9933 22.6998 24.9083 22.5674 24.8011C22.4351 24.6877 22.3311 24.5522 22.2554 24.3946C22.1861 24.237 22.1514 24.0605 22.1514 23.8652C22.1514 23.3988 22.3342 23.0458 22.6998 22.8063C23.0716 22.5605 23.5601 22.4376 24.1652 22.4376H25.016V22.0594C25.016 21.738 24.9341 21.5205 24.7702 21.4071C24.6064 21.2873 24.3858 21.2274 24.1084 21.2274C23.9446 21.2274 23.7555 21.2558 23.5412 21.3125C23.3332 21.363 23.0937 21.4638 22.8227 21.6151L22.5012 21.01ZM25.0255 23.0048L24.3259 23.0237C23.8532 23.0363 23.516 23.1214 23.3143 23.279C23.1189 23.4303 23.0212 23.6162 23.0212 23.8368C23.0212 23.9692 23.0433 24.0826 23.0874 24.1771C23.1315 24.2654 23.1882 24.3347 23.2576 24.3851C23.3332 24.4356 23.4183 24.4734 23.5128 24.4986C23.6137 24.5175 23.7177 24.5269 23.8248 24.5269C24.0328 24.5269 24.2439 24.4797 24.4582 24.3851C24.6725 24.2843 24.8616 24.1267 25.0255 23.9124V23.0048Z" fill="#07BAB7"/>
<path d="M27.9114 25.0564H27.0795V20.6129H27.7318L27.8547 21.2274C28.0753 21.0069 28.3054 20.8398 28.5449 20.7264C28.7907 20.6066 29.0711 20.5468 29.3863 20.5468C29.8401 20.5468 30.1962 20.676 30.4546 20.9344C30.713 21.1865 30.8422 21.5394 30.8422 21.9932V25.0564H30.0103V22.1161C30.0103 21.8451 29.9378 21.6308 29.7928 21.4733C29.6542 21.3094 29.4399 21.2274 29.1499 21.2274C28.7087 21.2274 28.2959 21.426 27.9114 21.8231V25.0564Z" fill="#07BAB7"/>
<path d="M34.238 24.4986C34.4396 24.4986 34.6161 24.4765 34.7674 24.4324C34.9187 24.3883 35.0668 24.3316 35.2117 24.2622L35.3914 24.8862C35.051 25.0564 34.6445 25.1415 34.1718 25.1415C33.8503 25.1415 33.5478 25.0942 33.2642 24.9997C32.9869 24.9051 32.7411 24.7633 32.5268 24.5742C32.3188 24.3788 32.1549 24.1393 32.0351 23.8557C31.9154 23.5658 31.8555 23.2286 31.8555 22.8441C31.8555 22.4912 31.9122 22.1729 32.0257 21.8892C32.1391 21.6056 32.2967 21.3661 32.4984 21.1707C32.7001 20.969 32.9427 20.8146 33.2264 20.7075C33.51 20.6003 33.822 20.5468 34.1623 20.5468C34.3577 20.5468 34.5468 20.5625 34.7296 20.594C34.9187 20.6192 35.133 20.6854 35.3725 20.7926L35.1834 21.426C34.8934 21.2621 34.5815 21.1802 34.2474 21.1802C33.7873 21.1802 33.4155 21.3251 33.1318 21.6151C32.8482 21.8987 32.7064 22.2989 32.7064 22.8157C32.7064 23.1372 32.7505 23.4051 32.8387 23.6193C32.927 23.8336 33.0436 24.007 33.1885 24.1393C33.3335 24.2654 33.4974 24.3568 33.6802 24.4135C33.8629 24.4702 34.0489 24.4986 34.238 24.4986Z" fill="#07BAB7"/>
<path d="M39.8444 22.9292H36.6584V22.967C36.6584 23.4586 36.7907 23.8368 37.0554 24.1015C37.3265 24.3662 37.692 24.4986 38.1521 24.4986C38.3916 24.4986 38.6028 24.4797 38.7856 24.4419C38.9746 24.404 39.1795 24.341 39.4001 24.2528L39.5702 24.8673C39.3875 24.9492 39.17 25.0154 38.9179 25.0658C38.6721 25.1163 38.4074 25.1415 38.1238 25.1415C37.8023 25.1415 37.4998 25.0973 37.2162 25.0091C36.9388 24.9209 36.693 24.7854 36.4787 24.6026C36.2645 24.4135 36.0943 24.174 35.9682 23.8841C35.8485 23.5941 35.7886 23.2475 35.7886 22.8441C35.7886 22.4975 35.839 22.1823 35.9399 21.8987C36.047 21.6151 36.1951 21.3756 36.3842 21.1802C36.5733 20.9785 36.8002 20.8241 37.0649 20.7169C37.3359 20.6035 37.6385 20.5468 37.9725 20.5468C38.2561 20.5468 38.5114 20.594 38.7383 20.6886C38.9715 20.7831 39.17 20.9155 39.3339 21.0856C39.4978 21.2558 39.6238 21.4607 39.7121 21.7002C39.8003 21.9397 39.8444 22.2044 39.8444 22.4943V22.9292ZM38.9841 22.3336C38.9841 22.1697 38.962 22.0184 38.9179 21.8798C38.8801 21.7348 38.8171 21.6088 38.7288 21.5016C38.6469 21.3945 38.5397 21.3094 38.4074 21.2464C38.275 21.1833 38.1143 21.1518 37.9252 21.1518C37.5786 21.1518 37.2949 21.2621 37.0744 21.4827C36.8601 21.7033 36.7277 21.9932 36.6773 22.3525L38.9841 22.3336Z" fill="#07BAB7"/>
<path d="M44.7094 19.0152C44.9993 19.0152 45.2798 19.0404 45.5508 19.0908C45.8218 19.1349 46.0897 19.22 46.3544 19.3461L46.1464 20.0646C45.8754 19.9385 45.6296 19.8503 45.409 19.7999C45.1947 19.7431 44.9741 19.7148 44.7472 19.7148C44.3879 19.7148 44.1043 19.7936 43.8963 19.9511C43.6883 20.1087 43.5843 20.3293 43.5843 20.6129C43.5843 20.8524 43.66 21.0447 43.8112 21.1896C43.9688 21.3346 44.2241 21.4607 44.577 21.5678L45.1726 21.7569C45.7147 21.9271 46.096 22.1603 46.3166 22.4565C46.5435 22.7464 46.6569 23.0742 46.6569 23.4397C46.6569 23.6981 46.6034 23.9345 46.4962 24.1488C46.3954 24.3568 46.2504 24.5364 46.0613 24.6877C45.8785 24.8326 45.6611 24.9461 45.409 25.028C45.1569 25.1036 44.8796 25.1415 44.577 25.1415C44.2745 25.1415 43.9657 25.1131 43.6505 25.0564C43.3417 25.006 43.0328 24.9083 42.724 24.7633L42.932 24.0542C43.203 24.1866 43.4677 24.2843 43.7262 24.3473C43.9846 24.4103 44.2556 24.4419 44.5392 24.4419C44.8796 24.4419 45.1695 24.3631 45.409 24.2055C45.6485 24.0479 45.7682 23.8147 45.7682 23.5059C45.7682 23.3924 45.7493 23.2885 45.7115 23.1939C45.68 23.0931 45.6201 22.9985 45.5319 22.9103C45.45 22.822 45.3365 22.7401 45.1915 22.6645C45.0466 22.5888 44.8638 22.5164 44.6432 22.447L44.0476 22.258C43.6127 22.1193 43.2787 21.9302 43.0455 21.6907C42.8123 21.4512 42.6957 21.1266 42.6957 20.7169C42.6957 20.1938 42.8658 19.781 43.2062 19.4784C43.5528 19.1696 44.0539 19.0152 44.7094 19.0152Z" fill="#07BAB7"/>
<path d="M46.9995 20.6129H47.8882L48.8336 23.1561L49.155 24.215H49.174L49.4954 23.1561L50.3557 20.6129H51.2066L49.4954 25.4345C49.3063 25.9703 49.0668 26.3894 48.7769 26.6919C48.4933 26.9945 48.1529 27.2151 47.7558 27.3537L47.3966 26.6919C47.6928 26.5785 47.9544 26.4146 48.1813 26.2003C48.4145 25.986 48.5941 25.6898 48.7202 25.3116L48.8052 25.0564L46.9995 20.6129Z" fill="#07BAB7"/>
<path d="M54.411 21.4449C54.203 21.3441 54.0139 21.2747 53.8437 21.2369C53.6735 21.1991 53.5034 21.1802 53.3332 21.1802C53.0307 21.1802 52.8069 21.2369 52.6619 21.3504C52.517 21.4575 52.4445 21.6025 52.4445 21.7852C52.4445 21.9176 52.4949 22.0342 52.5958 22.135C52.6966 22.2296 52.9078 22.3241 53.2292 22.4187L53.5128 22.5038C53.9351 22.6298 54.2534 22.7937 54.4677 22.9954C54.6883 23.1908 54.7986 23.4586 54.7986 23.799C54.7986 24.2024 54.6473 24.5269 54.3448 24.7728C54.0486 25.0186 53.6326 25.1415 53.0968 25.1415C52.8132 25.1415 52.539 25.1163 52.2743 25.0658C52.0159 25.0154 51.7922 24.9461 51.6031 24.8578L51.8016 24.2055C51.9844 24.2937 52.1829 24.3662 52.3972 24.4229C52.6115 24.4734 52.829 24.4986 53.0496 24.4986C53.3332 24.4986 53.5569 24.4482 53.7208 24.3473C53.891 24.2465 53.9761 24.0794 53.9761 23.8462C53.9761 23.6446 53.9036 23.5027 53.7586 23.4208C53.6137 23.3326 53.4057 23.2475 53.1347 23.1655L52.8416 23.071C52.4319 22.9386 52.1262 22.7748 51.9245 22.5794C51.7291 22.3777 51.6314 22.1193 51.6314 21.8042C51.6314 21.6151 51.6724 21.4417 51.7543 21.2842C51.8363 21.1266 51.9466 20.9942 52.0852 20.8871C52.2302 20.78 52.4004 20.698 52.5958 20.6413C52.7911 20.5783 53.0054 20.5468 53.2386 20.5468C53.4592 20.5468 53.6861 20.5688 53.9193 20.6129C54.1589 20.6507 54.3857 20.7169 54.6 20.8115L54.411 21.4449Z" fill="#07BAB7"/>
<path d="M58.1002 21.2369H56.7956V23.8179C56.7956 24.0385 56.8491 24.1866 56.9563 24.2622C57.0697 24.3379 57.2147 24.3757 57.3912 24.3757C57.5172 24.3757 57.6559 24.3631 57.8071 24.3379C57.9584 24.3063 58.0908 24.2717 58.2042 24.2339L58.3366 24.8673C58.2105 24.9177 58.0498 24.9618 57.8544 24.9997C57.659 25.0375 57.4542 25.0564 57.2399 25.0564C56.7987 25.0564 56.4773 24.9618 56.2756 24.7728C56.0739 24.5774 55.973 24.2969 55.973 23.9313V21.2369H55.3112V20.6129H55.973V19.1948H56.7956V20.6129H58.1002V21.2369Z" fill="#07BAB7"/>
<path d="M62.9904 22.9292H59.8044V22.967C59.8044 23.4586 59.9368 23.8368 60.2015 24.1015C60.4725 24.3662 60.8381 24.4986 61.2982 24.4986C61.5377 24.4986 61.7488 24.4797 61.9316 24.4419C62.1207 24.404 62.3255 24.341 62.5461 24.2528L62.7163 24.8673C62.5335 24.9492 62.3161 25.0154 62.0639 25.0658C61.8181 25.1163 61.5534 25.1415 61.2698 25.1415C60.9483 25.1415 60.6458 25.0973 60.3622 25.0091C60.0849 24.9209 59.8391 24.7854 59.6248 24.6026C59.4105 24.4135 59.2403 24.174 59.1143 23.8841C58.9945 23.5941 58.9346 23.2475 58.9346 22.8441C58.9346 22.4975 58.985 22.1823 59.0859 21.8987C59.193 21.6151 59.3411 21.3756 59.5302 21.1802C59.7193 20.9785 59.9462 20.8241 60.2109 20.7169C60.4819 20.6035 60.7845 20.5468 61.1185 20.5468C61.4021 20.5468 61.6574 20.594 61.8843 20.6886C62.1175 20.7831 62.3161 20.9155 62.4799 21.0856C62.6438 21.2558 62.7699 21.4607 62.8581 21.7002C62.9463 21.9397 62.9904 22.2044 62.9904 22.4943V22.9292ZM62.1301 22.3336C62.1301 22.1697 62.1081 22.0184 62.0639 21.8798C62.0261 21.7348 61.9631 21.6088 61.8749 21.5016C61.7929 21.3945 61.6858 21.3094 61.5534 21.2464C61.4211 21.1833 61.2603 21.1518 61.0713 21.1518C60.7246 21.1518 60.441 21.2621 60.2204 21.4827C60.0061 21.7033 59.8737 21.9932 59.8233 22.3525L62.1301 22.3336Z" fill="#07BAB7"/>
<path d="M64.8048 25.0564H63.9728V20.6129H64.6157L64.7386 21.2274C64.9466 21.0195 65.1703 20.8556 65.4098 20.7358C65.6493 20.6098 65.9361 20.5468 66.2701 20.5468C66.5853 20.5468 66.8437 20.6129 67.0454 20.7453C67.2471 20.8713 67.3983 21.0478 67.4992 21.2747C67.7198 21.0415 67.9624 20.8619 68.2272 20.7358C68.4919 20.6098 68.785 20.5468 69.1064 20.5468C69.5602 20.5468 69.9005 20.676 70.1274 20.9344C70.3606 21.1865 70.4772 21.5394 70.4772 21.9932V25.0564H69.6453V22.1445C69.6453 21.8483 69.5823 21.6214 69.4562 21.4638C69.3301 21.3062 69.1222 21.2274 68.8322 21.2274C68.4036 21.2274 68.0034 21.4197 67.6315 21.8042C67.6378 21.8357 67.641 21.8672 67.641 21.8987C67.641 21.9302 67.641 21.9617 67.641 21.9932V25.0564H66.809V22.1445C66.809 21.8483 66.746 21.6214 66.62 21.4638C66.4939 21.3062 66.2859 21.2274 65.996 21.2274C65.5674 21.2274 65.1703 21.4291 64.8048 21.8325V25.0564Z" fill="#07BAB7"/>
<path d="M0 0H3.45391V9.50457C3.45391 10.8155 3.71443 11.8156 4.23546 12.5047C4.77329 13.177 5.59685 13.5131 6.70614 13.5131C7.79862 13.5131 8.58856 13.1686 9.07598 12.4795C9.56339 11.7904 9.8071 10.8996 9.8071 9.8071V0H13.261V9.55499C13.261 11.7736 12.7064 13.4291 11.5971 14.5216C10.5046 15.614 8.87429 16.1603 6.70614 16.1603C4.62203 16.1603 2.98331 15.614 1.78998 14.5216C0.596662 13.4291 0 11.7315 0 9.42894V0Z" fill="#07BAB7"/>
<path d="M20.9033 9.68105H24.9371L24.206 7.56332C23.9707 6.90783 23.7522 6.25234 23.5505 5.59685C23.3488 4.92456 23.1555 4.25227 22.9706 3.57997H22.9202C22.7353 4.21865 22.5336 4.87414 22.3151 5.54643C22.0966 6.20192 21.8697 6.87422 21.6344 7.56332L20.9033 9.68105ZM21.2058 0H24.7858L30.66 15.883H27.0044L25.769 12.2274H20.1218L18.8864 15.883H15.2812L21.2058 0Z" fill="#07BAB7"/>
<path d="M32.6721 15.883V0H36.1261V6.30276H42.1515V0H45.6054V15.883H42.1515V9.02556H36.1261V15.883H32.6721Z" fill="#07BAB7"/>
<path d="M49.1184 0H59.4549V2.67237H52.5723V6.30276H58.7995V8.94993H52.5723V13.2106H59.5306V15.883H49.1184V0Z" fill="#07BAB7"/>
<path d="M62.1425 0H65.5964V13.1602H72V15.883H62.1425V0Z" fill="#07BAB7"/>
</svg>
